<?xml version="1.0" encoding="UTF-8"?>
<svg id="Layer_2" data-name="Layer 2" xmlns="http://www.w3.org/2000/svg" viewBox="0 0 237.83 73.24">
  <defs>
    <style>
      .cls-1 {
        fill: #5a8e3f;
        fill-rule: evenodd;
      }
    </style>
  </defs>
  <g id="Livello_1" data-name="Livello 1">
    <path class="cls-1" d="M15.31,8.52c2.73-2.02,4.3-4.95,5.05-8.52,1.85,4.76,3.76,8.61,6.49,10.63,.64,.31,.09,.72-.79,.24-2.45-1.59-3.3,1.19-1.87,3.06,1.76,2.03,3.76,3.55,5.77,4.54,.13,.3-.14,.44-.49,.43-3.06-.74-4.17,.46-3.34,2.83,1.39,2.07,3.47,3.84,4.18,6.2,1.86,2.96,5.45,3.19,7.19,4.87-2.46-.99-4.57-1.51-5.91-1.03-.5,1.37-1.37,1.29-2.8-.89-2.27-5.64-6.57-1.75-3.4,.74,2.02,1.33,5.07,2.4,6.06,3.99-3.49-1.86-5.47-.1-3.4,1.92,2.67,2.19,5.63,3.65,8.03,4.56,1.59,.82,.81,2.09-.89,.69-3.19-1.72-3.86,1.94-1.82,2.58,1.85,.25,2.66,1.28,3.99,1.93,.6,.99,.03,1.26-.74,.44-2.93-2.17-3.48-1.2-4.29,0-.39,1.67-1.27,1.57-1.1-.21,.64-5.59-6.66-3.64-2.29,.51-2.41-.66-3.23,.68-1.46,1.89,2.67,1.94,4.95,3.87,6.93,5.8,2.33,1.67,1.45,2.12-.81,1.79-1.97-.29-3.75-1.19-5.55-2.09-1.9-1.3-2.58-1.02-2.07,.89,1.33,2.25,3.39,3.8,6.11,4.6,5.5,1.16-4.96,2.58-8.03-1.05-1.13-1.34-4.29-.08-4.29,1.19l.14,6.58c.17,1.56,2.02,3.7,4.14,3.02,2.78,.1,5.37,.38,7.53,1l5.03,1.21c-.12,.13-.87,.39-1.42,.26l-19.57-.08c-.57-.42-1.6-.38-2.95-.01-2.59,.33-4.76,.26-6.66-.03,3.75-.87,5.81-3.41,9.02-2.51,1.1-.21,1.68-2.76,2.51-4.14l.14-5.76c-.27-2.06-1.12-2.04-2.52-.48,.09-2.08-2.27-2.29-3.36,.18-1.29,1.71-2.84,1.9-1.76-.16,1.3-1.93,.81-2.7-1.08-1.85-2.06,.54-4.31,1.6-6.46,2.36-1.21,.29-1.41-.07-.52-.98l2.7-2.02c.52-1.24,.08-1.64-1.14-1.57-1.05-.34-.73-.9,.98-1.67,1.92-1.4,3.83-2.84,4.97-4.77,1.56-1.99-.74-3.23-2.01-1.47-.4-1.89-1.73-1.57-2.36-.12-.39,.74-.96,1.24-1.63,1.63-.92-1.12-1.77-1.5-2.44-.27-.26,.3-.63-.03-1.06-.42,2.66-2.18,4.67-4.03,5.85-6.11-1.26,.08-2.11-.37-2.51-1.33,3.22-1.85,6.14-4.77,9.02-7.83,1.56-1.98-.46-4.01-2.43-1.43-1.05,1.07-3.07,2.08-6.29,3.06-1.98,.53-2.19-.04-.44-1.03,2.07-1.24,3.99-2.62,5.62-4.29,1.16-1.26,1.16-2.16-1.39-2.22-.87,.29-1.64,.1-2.33-.39,5.58-3.92,10.49-7.65,7.56-8.96,1.36-2.06,.46-2.65-2.33-2.02,2.15-1.71,4.24-3.44,5.59-5.32,1.02-1.05,.82-1.9-.59-2.58"/>
    <polygon class="cls-1" points="45.41 28.71 65.16 28.71 65.16 31.61 59.14 31.61 59.14 57.88 51.87 57.88 51.87 31.61 45.4 31.61 45.41 28.71"/>
    <path class="cls-1" d="M88.65,33.1l.77-.9c-3.79-4.01-10.46-3.38-14.55-1.29-4.13,2.62-7.59,6.1-7.98,14.67,.39,5.05,2.2,9.3,7.53,11.78,6.28,1.71,11.94,1.86,15.83-2.45l-1.41-1.54c-2.58,3.1-5.69,3.35-9.12,1.99-3.57-2.3-5.29-6.64-4.85-11.52h13.02v-1.86h-13.08c1.62-9.84,7.64-12.93,13.84-8.89"/>
    <path class="cls-1" d="M179.44,33.1l.77-.9c-3.79-4.01-10.46-3.38-14.56-1.29-4.13,2.62-7.58,6.1-7.98,14.67,.39,5.05,2.2,9.3,7.53,11.78,6.28,1.71,11.94,1.86,15.83-2.45l-1.41-1.54c-2.58,3.1-5.69,3.35-9.12,1.99-3.56-2.3-5.29-6.64-4.84-11.52h13.02v-1.86h-13.08c1.62-9.84,7.65-12.93,13.84-8.89"/>
    <path class="cls-1" d="M94.05,17.45h9.33v25.41c5.75-7.99,15.22-18.52,16.59-25.49h9.05c-6.97,4.05-10.58,9.3-13.72,14.71,1.82,11.67,6.2,21,12.04,29.03,2.95,3.6,1.74,4.86-1.98,2.49-8.25-6.44-14.53-14.28-17.36-21.66l-4.27,5.45v9.3h-9.72l.04-39.25"/>
    <path class="cls-1" d="M185.31,29.16h6.76v18.41c4.16-5.78,11.03-13.41,12.03-18.48h6.55c-5.06,2.94-7.67,6.74-9.94,10.66,1.31,8.46,4.5,15.23,8.72,21.04,2.14,2.61,1.25,3.52-1.43,1.8-5.98-4.67-10.53-10.35-12.59-15.69l-3.1,3.95v6.73h-7.05l.05-28.43"/>
    <path class="cls-1" d="M135.05,32.72c4.17-4.35,10.63-5.79,15.71-1.16,5.44,5.9,4.82,12.17,.08,18.68l-6.71,5.79h8.25v1.24h-12.67c7.07-5.2,8.82-12.25,6.95-20.54-3.27-6.5-7.14-5.59-11.22-2v22.7h-7.1V29.1h6.65l.06,3.62"/>
    <path class="cls-1" d="M214.01,27.76v3.27l10.57-.46c5.73,2.26,7.48,16.87,3.55,21.77-3,4.01-6.52,4.61-9.81,.91-4.48-6.4-3.11-18.22,3.86-20.63,.71-.34,.71-1.25-.3-1.37-6.8,.46-11.07,3.45-12.83,8.98-1.39,5.16,.14,10.67,4.83,14.01,4.61,4.51,15.81,4.4,19.56-.83,5.38-6.54,6.07-15.39,.68-21.16-2.59-2.48-6.07-3.9-10.11-4.26l-9.98-.23"/>
  </g>
</svg>